HIERARCHY
ROOT Hips
{
	OFFSET 0.000000 0.000000 0.000000
	CHANNELS 6 Xposition Yposition Zposition Zrotation Yrotation Xrotation 
	JOINT LHipJoint
	{
		OFFSET 0.000000 0.000000 0.000000
		CHANNELS 3 Zrotation Yrotation Xrotation
		JOINT LeftUpLeg
		{
			OFFSET 1.363060 -1.794630 0.839290
			CHANNELS 3 Zrotation Yrotation Xrotation
			JOINT LeftLeg
			{
				OFFSET 2.448110 -6.726130 0.000000
				CHANNELS 3 Zrotation Yrotation Xrotation
				JOINT LeftFoot
				{
					OFFSET 2.562200 -7.039590 0.000000
					CHANNELS 3 Zrotation Yrotation Xrotation
					JOINT LeftToeBase
					{
						OFFSET 0.157640 -0.433110 2.322550
						CHANNELS 3 Zrotation Yrotation Xrotation
						End Site
						{
							OFFSET 0.000000 0.000000 0.000000
						}
					}
				}
			}
		}
	}
	JOINT RHipJoint
	{
		OFFSET 0.000000 0.000000 0.000000
		CHANNELS 3 Zrotation Yrotation Xrotation
		JOINT RightUpLeg
		{
			OFFSET -1.305520 -1.794630 0.839290
			CHANNELS 3 Zrotation Yrotation Xrotation
			JOINT RightLeg
			{
				OFFSET -2.542530 -6.985550 0.000000
				CHANNELS 3 Zrotation Yrotation Xrotation
				JOINT RightFoot
				{
					OFFSET -2.568260 -7.056230 0.000000
					CHANNELS 3 Zrotation Yrotation Xrotation
					JOINT RightToeBase
					{
						OFFSET -0.164730 -0.452590 2.363150
						CHANNELS 3 Zrotation Yrotation Xrotation
						End Site
						{
							OFFSET 0.000000 0.000000 0.000000
						}
					}
				}
			}
		}
	}
	JOINT LowerBack
	{
		OFFSET 0.000000 0.000000 0.000000
		CHANNELS 3 Zrotation Yrotation Xrotation
		JOINT Spine
		{
			OFFSET 0.028270 2.035590 -0.193380
			CHANNELS 3 Zrotation Yrotation Xrotation
			JOINT Spine1
			{
				OFFSET 0.056720 2.048850 -0.042750
				CHANNELS 3 Zrotation Yrotation Xrotation
				JOINT Neck
				{
					OFFSET 0.000000 0.000000 0.000000
					CHANNELS 3 Zrotation Yrotation Xrotation
					JOINT Neck1
					{
						OFFSET -0.054170 1.746240 0.172020
						CHANNELS 3 Zrotation Yrotation Xrotation
						JOINT Head
						{
							OFFSET 0.104070 1.761360 -0.123970
							CHANNELS 3 Zrotation Yrotation Xrotation
							End Site
							{
								OFFSET 0.000000 0.000000 0.000000
							}
						}
					}
				}
				JOINT LeftShoulder
				{
					OFFSET 0.000000 0.000000 0.000000
					CHANNELS 3 Zrotation Yrotation Xrotation
					JOINT LeftArm
					{
						OFFSET 3.362410 1.200890 -0.311210
						CHANNELS 3 Zrotation Yrotation Xrotation
						JOINT LeftForeArm
						{
							OFFSET 4.983000 -0.000000 -0.000000
							CHANNELS 3 Zrotation Yrotation Xrotation
							JOINT LeftHand
							{
								OFFSET 3.483560 -0.000000 -0.000000
								CHANNELS 3 Zrotation Yrotation Xrotation
								JOINT LeftFingerBase
								{
									OFFSET 0.000000 0.000000 0.000000
									CHANNELS 3 Zrotation Yrotation Xrotation
									JOINT LeftHandIndex1
									{
										OFFSET 0.715260 -0.000000 -0.000000
										CHANNELS 3 Zrotation Yrotation Xrotation
										End Site
										{
											OFFSET 0.000000 0.000000 0.000000
										}
									}
								}
								JOINT LThumb
								{
									OFFSET 0.000000 0.000000 0.000000
									CHANNELS 3 Zrotation Yrotation Xrotation
									End Site
									{
										OFFSET 0.000000 0.000000 0.000000
									}
								}
							}
						}
					}
				}
				JOINT RightShoulder
				{
					OFFSET 0.000000 0.000000 0.000000
					CHANNELS 3 Zrotation Yrotation Xrotation
					JOINT RightArm
					{
						OFFSET -3.136600 1.374050 -0.404650
						CHANNELS 3 Zrotation Yrotation Xrotation
						JOINT RightForeArm
						{
							OFFSET -5.241900 -0.000000 -0.000000
							CHANNELS 3 Zrotation Yrotation Xrotation
							JOINT RightHand
							{
								OFFSET -3.444170 -0.000000 -0.000000
								CHANNELS 3 Zrotation Yrotation Xrotation
								JOINT RightFingerBase
								{
									OFFSET 0.000000 0.000000 0.000000
									CHANNELS 3 Zrotation Yrotation Xrotation
									JOINT RightHandIndex1
									{
										OFFSET -0.622530 -0.000000 -0.000000
										CHANNELS 3 Zrotation Yrotation Xrotation
										End Site
										{
											OFFSET 0.000000 0.000000 0.000000
										}
									}
								}
								JOINT RThumb
								{
									OFFSET 0.000000 0.000000 0.000000
									CHANNELS 3 Zrotation Yrotation Xrotation
									End Site
									{
										OFFSET 0.000000 0.000000 0.000000
									}
								}
							}
						}
					}
				}
			}
		}
	}
}
MOTION
Frames: 11
Frame Time: 0.008333
15.564481 17.242642 5.269309 52.921836 -88.666780 -42.954358 -5.642238 -3.346900 -0.257481 -6.982849 13.681591 -44.086121 11.397295 17.462787 60.338872 7.044510 -13.952445 4.314419 0.304100 -3.545700 -9.801800 4.690989 2.515129 0.200523 5.472916 -1.145330 -40.806508 -11.002427 -17.763016 60.000524 -4.772850 6.056290 1.546708 -0.780900 5.641900 -15.748800 -1.699779 -0.840939 16.241802 0.459947 -1.254341 -2.097230 -0.427007 -0.876542 -2.771904 -6.713447 -5.732384 -9.361381 9.434498 -7.522956 6.392050 3.559300 -3.312900 5.477200 -4.918718 -4.605645 0.027489 -73.383206 2.891506 2.963703 16.964423 -23.637371 -6.127528 -2.142743 -3.682625 16.010071 11.377613 19.394999 5.038700 -7.125000 0.000000 0.000000 -17.324800 53.161500 -3.562900 5.695479 5.191660 -0.493581 67.785901 -4.260294 2.122423 -16.647293 25.640988 -7.393131 1.990710 -3.619208 16.583500 -28.275457 25.082282 -15.673000 7.125000 0.000000 0.000000 -0.535400 1.433300 -0.548600 
15.570947 17.174209 5.278577 52.298583 -88.717580 -42.468889 -5.448252 -3.324429 -0.315537 -6.962026 13.708925 -44.556429 11.842343 17.644358 61.589577 7.001611 -14.237280 4.024132 0.417800 -4.149000 -11.496300 4.529649 2.505727 0.165705 5.481691 -0.797564 -41.379076 -11.435860 -17.970731 61.278052 -4.772275 6.240307 1.329441 -0.745000 5.513700 -15.379600 -1.778310 -0.857399 16.704687 0.525413 -1.272492 -2.098211 -0.112926 -0.898378 -2.894867 -6.978520 -5.809078 -9.531255 9.471931 -7.550806 6.246756 3.594200 -3.327300 5.467300 -4.884385 -4.612227 0.018280 -73.343217 3.080863 2.867836 17.122625 -23.851346 -6.245158 -2.184753 -3.700252 15.726357 11.740431 19.568626 5.253500 -7.125000 0.000000 0.000000 -17.010600 53.423100 -3.605700 5.727764 5.207900 -0.475367 66.973639 -4.329582 2.361002 -16.660716 25.706979 -7.433259 2.034054 -3.568638 15.797277 -28.093812 25.042648 -15.530900 7.125000 0.000000 0.000000 -0.432200 1.320100 -0.442100 
15.585172 17.070429 5.294096 54.248858 -88.736155 -44.466396 -5.217650 -3.328844 -0.404286 -7.026255 13.654910 -45.199726 12.350405 17.835208 63.082602 7.068741 -15.140543 3.958451 0.377100 -3.943700 -10.918400 4.286803 2.448888 0.160443 5.486413 -0.814213 -42.179423 -12.058105 -18.245214 63.033384 -4.907676 6.720500 0.739504 -0.807500 5.734800 -16.016900 -1.732494 -0.912516 17.128459 0.553745 -1.333548 -2.135941 0.006644 -0.921501 -3.200170 -7.330289 -5.840648 -9.382758 9.557715 -7.534811 6.011500 3.703100 -3.332300 5.343000 -4.867803 -4.605975 0.005682 -73.333593 3.434748 2.584911 17.306948 -24.097470 -6.377219 -2.245356 -3.724426 15.676396 12.153183 19.874592 5.524300 -7.125000 0.000000 0.000000 -16.720900 53.837500 -3.713100 5.755420 5.217928 -0.453765 66.183935 -4.412344 2.645087 -16.563636 25.643774 -7.393329 2.124940 -3.449477 15.148747 -28.049195 24.261745 -15.081500 7.125000 0.000000 0.000000 -0.577500 0.361500 -0.581200 
15.598643 16.957272 5.308752 61.299830 -88.507340 -51.553615 -5.055340 -3.382225 -0.479130 -7.280504 13.491581 -45.797250 12.807282 17.991015 64.587143 7.260738 -16.951287 4.496240 0.059200 -1.569900 -4.318500 4.005195 2.371705 0.127185 5.228820 -0.975432 -43.065985 -12.686086 -18.519463 64.738238 -4.756391 6.466896 -0.030179 -1.238000 7.055500 -19.879900 -1.818427 -0.891983 17.501111 0.482042 -1.345591 -2.145209 -0.190287 -0.920211 -3.393407 -7.435758 -5.956770 -9.282012 9.693934 -7.678384 5.708360 3.813200 -3.403300 5.199100 -4.888942 -4.604180 0.023269 -72.870312 3.542529 2.794174 17.373420 -24.209429 -6.440458 -2.262043 -3.749708 15.463144 12.295536 20.009118 5.630100 -7.125000 0.000000 0.000000 -16.635200 54.020500 -3.768600 5.704675 5.223210 -0.446592 66.027969 -4.613540 2.266604 -16.685754 25.812522 -7.499906 2.151249 -3.386605 15.074877 -28.099675 23.955515 -14.927900 7.125000 0.000000 0.000000 -0.675100 -0.025100 -0.674800 
15.606187 16.846164 5.321253 68.277086 -88.259620 -58.653847 -4.928942 -3.418901 -0.537138 -7.499558 13.331770 -46.271666 13.424287 18.169921 66.210448 7.141168 -16.609192 3.041764 0.178600 -2.722000 -7.505600 3.745826 2.280351 0.097252 4.813018 -0.874680 -43.777717 -13.343018 -18.793235 66.527572 -4.871902 6.861758 -0.711038 -1.467200 7.654800 -21.670300 -2.050039 -0.818854 17.878523 0.429842 -1.308571 -2.127315 -0.227616 -0.905685 -3.490280 -7.579157 -6.081279 -9.245967 9.818015 -7.820808 5.427996 3.913300 -3.472700 5.076700 -4.895327 -4.597645 0.037976 -72.355070 3.702482 3.443477 17.459997 -24.377216 -6.533674 -2.165926 -3.793354 14.718738 11.982822 19.831589 5.438400 -7.125000 0.000000 0.000000 -16.905000 53.787600 -3.734900 5.656522 5.213567 -0.432744 65.794993 -4.784773 1.676722 -16.858948 26.053665 -7.662823 2.090263 -3.409079 15.310049 -27.922791 24.348395 -15.014100 7.125000 0.000000 0.000000 -0.472100 0.374800 -0.475200 
15.619119 16.723632 5.331168 68.539501 -88.331294 -59.058677 -4.727432 -3.398245 -0.617437 -7.364417 13.165159 -46.746285 14.062928 18.362087 67.837843 7.024989 -16.223724 1.565069 0.430100 -4.208900 -11.665000 3.562343 2.243974 0.083711 4.681673 -0.434252 -44.434084 -13.985048 -19.023435 68.352977 -5.197785 7.852286 -1.163093 -1.228100 7.028300 -19.799100 -1.996437 -0.760016 18.288446 0.454158 -1.216850 -2.103611 -0.120696 -0.869473 -3.556174 -7.702767 -6.245199 -9.323020 9.827294 -7.997460 5.180011 3.918100 -3.561100 4.990500 -4.849298 -4.595076 0.040486 -72.088440 3.876675 4.009315 17.644629 -24.640129 -6.683094 -2.084889 -3.845293 14.168508 11.710577 19.820774 5.303600 -7.125000 0.000000 0.000000 -17.228900 53.739600 -3.789400 5.645747 5.206261 -0.414798 65.467620 -4.919320 1.001235 -17.000377 26.252064 -7.805565 2.027576 -3.477777 15.645566 -27.874563 24.973311 -15.310000 7.125000 0.000000 0.000000 -0.306700 1.097700 -0.312500 
15.640672 16.590754 5.340867 61.757572 -88.485982 -52.355907 -4.467818 -3.328478 -0.705157 -7.098570 12.909272 -47.303400 14.671112 18.551189 69.441812 6.997401 -16.418471 0.564674 0.634600 -5.097100 -14.185600 3.403400 2.271847 0.071628 4.804034 -0.192602 -45.272005 -14.593193 -19.200283 70.119416 -5.133249 7.864321 -1.714659 -1.299100 7.220900 -20.371600 -1.738045 -0.859728 18.774573 0.504000 -1.295190 -2.108995 -0.036593 -0.902666 -3.732568 -7.856437 -6.309610 -9.372626 9.854168 -8.037926 4.943194 3.946700 -3.584100 4.900000 -4.821475 -4.599593 0.047856 -72.015261 3.925697 3.692159 17.747749 -24.758041 -6.760857 -2.040750 -3.853682 14.334053 11.428735 19.811516 5.158600 -7.125000 0.000000 0.000000 -17.559300 53.672100 -3.836200 5.642670 5.234467 -0.399040 65.067944 -5.056630 0.782171 -17.140380 26.438053 -7.932460 2.029864 -3.474460 15.636401 -27.953356 25.093045 -15.411100 7.125000 0.000000 0.000000 -0.332900 1.239600 -0.340000 
15.656945 16.463264 5.354985 58.561297 -88.660581 -49.177172 -4.215907 -3.279582 -0.788830 -6.856637 12.745878 -47.888090 15.268168 18.711951 71.030773 7.086070 -17.256453 -0.122422 0.593300 -4.931200 -13.712300 3.208616 2.265904 0.060498 4.897079 -0.018236 -46.197160 -15.198589 -19.371044 71.878194 -5.021877 7.735598 -2.293930 -1.572100 7.911400 -22.445200 -1.522338 -0.973068 19.137473 0.552834 -1.395360 -2.118382 0.017329 -0.947606 -3.891488 -8.010823 -6.240711 -9.290253 9.929556 -7.921201 4.659525 4.011400 -3.532800 4.726900 -4.830089 -4.618867 0.063888 -71.967354 3.953220 2.935491 17.774101 -24.792846 -6.791272 -1.973144 -3.781614 14.798384 11.072503 19.318128 4.862800 -7.125000 0.000000 0.000000 -17.699400 53.050200 -3.594800 5.691643 5.260552 -0.363236 64.211257 -5.001997 1.060913 -17.055495 26.391960 -7.911306 2.083299 -3.428639 15.384450 -28.039166 24.697093 -15.258200 7.125000 0.000000 0.000000 -0.478100 0.791400 -0.484700 
15.668800 16.340086 5.369533 57.687083 -88.957608 -48.344666 -3.953262 -3.242491 -0.885796 -6.525050 12.624579 -48.450564 15.899720 18.862626 72.695030 7.110635 -17.794763 -0.951283 0.535700 -4.689600 -13.025300 3.038618 2.239184 0.056104 4.940641 0.377037 -47.016826 -15.803388 -19.534858 73.633275 -5.345099 8.791989 -2.556534 -1.355200 7.369100 -20.813700 -1.240686 -0.930088 19.410717 0.555704 -1.287169 -2.091960 -0.128451 -0.898845 -3.872215 -7.929786 -6.289150 -9.396895 10.031659 -7.991423 4.440245 4.042600 -3.558400 4.640900 -4.859126 -4.653749 0.091287 -71.559924 3.806167 2.609307 17.768640 -24.801312 -6.806527 -1.942820 -3.685910 15.237730 10.963419 18.762428 4.677800 -7.125000 0.000000 0.000000 -17.521900 52.405100 -3.275500 5.751596 5.294251 -0.322533 63.608130 -4.791271 0.879240 -16.843191 26.180086 -7.799059 2.105276 -3.476826 15.265501 -28.139208 24.804789 -15.406300 7.125000 0.000000 0.000000 -0.526800 0.986200 -0.535800 
15.683025 16.213782 5.385914 49.257205 -89.230835 -40.022036 -3.679686 -3.145778 -0.965803 -6.157045 12.437855 -49.031135 16.541322 19.026487 74.429116 7.028382 -17.820429 -1.877677 0.596700 -4.945300 -13.752700 2.907485 2.271570 0.052824 5.047969 0.660804 -47.737012 -16.370593 -19.646465 75.307448 -5.427711 9.223413 -2.827273 -1.354500 7.367200 -20.807900 -0.850625 -0.874654 19.867033 0.548915 -1.152746 -2.076340 -0.330685 -0.825982 -3.949845 -7.798166 -6.533499 -9.628572 10.096468 -8.312524 4.257994 4.029400 -3.703100 4.648900 -4.870402 -4.673954 0.114600 -71.019261 3.618393 2.654873 17.737231 -24.766838 -6.798824 -1.965495 -3.652258 15.430773 11.046141 18.655946 4.692400 -7.125000 0.000000 0.000000 -17.362700 52.296900 -3.197400 5.757751 5.350730 -0.309502 63.435459 -4.837868 0.293979 -16.937119 26.275874 -7.880262 2.139661 -3.378055 15.336902 -28.183590 24.109466 -15.038900 7.125000 0.000000 0.000000 -0.701000 0.135900 -0.702700 
15.697035 16.084029 5.399385 44.660533 -89.321462 -35.588992 -3.441455 -3.079937 -1.034148 -5.933222 12.319112 -49.640547 17.165256 19.157051 76.163912 7.006123 -18.304956 -2.525410 0.544700 -4.728500 -13.135700 2.745682 2.261842 0.059927 5.005539 0.825256 -48.438931 -16.950948 -19.754757 77.007617 -5.184969 8.679822 -3.431531 -1.846700 8.539100 -24.363900 -0.696323 -0.824272 20.406925 0.557597 -1.058827 -2.075505 -0.365594 -0.779466 -4.153601 -7.746045 -6.793316 -9.695402 10.068512 -8.644624 4.011202 3.968500 -3.868000 4.583300 -4.839521 -4.677152 0.127645 -70.643729 3.638625 2.992391 17.757040 -24.805138 -6.823477 -2.039115 -3.651551 15.359184 11.457319 18.827192 4.925800 -7.125000 0.000000 0.000000 -16.978700 52.559000 -3.234100 5.730751 5.365115 -0.315005 63.326675 -5.161229 -0.356780 -17.261596 26.636993 -8.119316 2.209397 -3.238629 15.510492 -28.534669 23.246122 -14.731800 7.125000 0.000000 0.000000 -1.110900 -0.885300 -1.093800 
